<svg width="72" height="23" viewBox="0 0 72 23" fill="none" xmlns="http://www.w3.org/2000/svg">
<path d="M25.388 21.8064L29.0006 0.510853H34.7768L31.1631 21.8064H25.388ZM52.0061 0.978031C50.3484 0.37466 48.5973 0.0718958 46.8343 0.083836C41.1337 0.083836 37.1178 2.96855 37.0832 7.10381C37.0519 10.1602 39.9508 11.8649 42.1393 12.8818C44.3851 13.9249 45.1399 14.5898 45.1291 15.521C45.1151 16.9465 43.3353 17.5973 41.6776 17.5973C39.368 17.5973 38.1418 17.2714 36.2463 16.4815L35.5035 16.1435L34.6935 20.9046C36.0408 21.4979 38.5332 22.0129 41.1197 22.039C47.1846 22.039 51.1216 19.1879 51.167 14.7723C51.1886 12.3527 49.6532 10.5111 46.3229 8.99321C44.3062 8.01535 43.0714 7.35258 43.0844 6.35625C43.0844 5.47292 44.13 4.5277 46.3888 4.5277C47.8688 4.49441 49.3393 4.77196 50.7064 5.34258L51.2232 5.58811L52.0061 0.978031ZM66.8457 0.510853H62.4016C61.0251 0.510853 59.9946 0.888977 59.3902 2.26884L50.848 21.6978H56.9281C56.9281 21.6978 57.9013 19.1141 58.1251 18.5469L65.4098 18.5556C65.5796 19.2901 66.1018 21.6978 66.1018 21.6978H71.4996L66.8457 0.510853ZM59.7795 14.2009C60.2563 12.9753 62.0783 8.25546 62.0783 8.25546C62.0437 8.31196 62.5519 7.02337 62.8428 6.22479L63.2331 8.05885C63.2331 8.05885 64.3382 13.1361 64.5685 14.2009H59.7795ZM20.4865 0.510853L14.8508 14.9821L14.2507 12.0409C13.2018 8.65099 9.93308 4.9786 6.27832 3.14023L11.4318 21.6978L17.5216 21.6912L26.5839 0.510853H20.4584" fill="url(#paint0_linear_1743_900)"/>
<path d="M9.33801 0.511186H0.0746027L0 0.953376C7.23816 2.71461 12.0271 6.96939 14.0156 12.0803L11.9926 2.30175C11.6433 0.955566 10.6312 0.553556 9.37803 0.506836" fill="url(#paint1_linear_1743_900)"/>
<defs>
<linearGradient id="paint0_linear_1743_900" x1="38.889" y1="0.0834961" x2="38.889" y2="22.0389" gradientUnits="userSpaceOnUse">
<stop stop-color="white"/>
<stop offset="1" stop-color="white" stop-opacity="0.75"/>
</linearGradient>
<linearGradient id="paint1_linear_1743_900" x1="7.00782" y1="0.506836" x2="7.00782" y2="12.0803" gradientUnits="userSpaceOnUse">
<stop stop-color="white"/>
<stop offset="1" stop-color="white" stop-opacity="0.75"/>
</linearGradient>
</defs>
</svg>
